<?xml version="1.0" encoding="UTF-8" standalone="no"?>
<!-- Generator: Adobe Illustrator 22.1.0, SVG Export Plug-In . SVG Version: 6.00 Build 0)  -->

<svg
   version="1.1"
   id="svg8"
   inkscape:version="1.3.2 (091e20e, 2023-11-25, custom)"
   sodipodi:docname="Dwango.svg"
   x="0px"
   y="0px"
   viewBox="0 0 1000 168.29332"
   xml:space="preserve"
   width="1000.0001"
   height="168.29332"
   xmlns:inkscape="http://www.inkscape.org/namespaces/inkscape"
   xmlns:sodipodi="http://sodipodi.sourceforge.net/DTD/sodipodi-0.dtd"
   xmlns="http://www.w3.org/2000/svg"
   xmlns:svg="http://www.w3.org/2000/svg"><defs
   id="defs1" />
<style
   type="text/css"
   id="style1">
	.st0{fill:#1E266E;}
	.st1{fill:#0073C2;}
</style>


<sodipodi:namedview
   bordercolor="#666666"
   borderopacity="1.0"
   fit-margin-bottom="0.5"
   fit-margin-left="0.5"
   fit-margin-right="0.5"
   fit-margin-top="0.5"
   id="base"
   inkscape:current-layer="svg8"
   inkscape:cx="500.00002"
   inkscape:cy="84.231809"
   inkscape:document-units="px"
   inkscape:pageopacity="0"
   inkscape:pageshadow="2"
   inkscape:window-height="705"
   inkscape:window-maximized="1"
   inkscape:window-width="1366"
   inkscape:window-x="-8"
   inkscape:window-y="-8"
   inkscape:zoom="0.74199998"
   pagecolor="#ffffff"
   showgrid="false"
   units="px"
   inkscape:showpageshadow="2"
   inkscape:pagecheckerboard="0"
   inkscape:deskcolor="#d1d1d1">
	</sodipodi:namedview>
<g
   id="layer1"
   transform="matrix(10.528624,0,0,10.528624,-899.47818,-1241.2632)"
   inkscape:label="Layer 1">
	
	
	
	
	
	
	
	
	
	
	<path
   id="path2993"
   inkscape:connector-curvature="0"
   class="st1"
   d="m 126.07754,121.04517 c -2.66147,0 -4.81771,2.15105 -4.81771,4.81251 0,2.65624 2.15624,4.8125 4.81771,4.8125 h 6.15104 v -9.62501 z m 1.52604,8.14584 c -1.84375,0 -3.33855,-1.48959 -3.33855,-3.33333 0,-1.84374 1.4948,-3.33855 3.33855,-3.33855 h 1.71353 v 6.67188 z" />
	<path
   id="path2995"
   inkscape:connector-curvature="0"
   class="st1"
   d="m 93.488991,117.89415 v 3.15105 h -3.244789 c -2.65625,0 -4.812508,2.15104 -4.812508,4.8125 0,2.65625 2.156258,4.81251 4.812508,4.81251 h 6.151039 v -12.77606 z m -1.713547,11.29686 c -1.84375,0 -3.338532,-1.48959 -3.338532,-3.33333 0,-1.84374 1.494782,-3.33855 3.338532,-3.33855 h 1.713547 v 6.67188 z" />
	<path
   id="path2997"
   inkscape:connector-curvature="0"
   class="st1"
   d="m 148.57233,125.63371 c 0,-3.85415 -1.69793,-4.57812 -3.6198,-4.57812 h -7.34375 v 9.4427 h 2.90625 v -7.96353 h 2.86458 c 1.83854,0 2.28645,0.97917 2.28645,3.10417 v 4.85939 h 2.90625 z" />
	<path
   id="path2999"
   inkscape:connector-curvature="0"
   class="st1"
   d="m 158.40565,121.05559 c -2.66145,0 -4.8177,2.06248 -4.8177,4.71876 0,2.66146 2.15625,4.72394 4.8177,4.72394 h 3.00522 c -0.38542,1.37499 -1.5625,1.90103 -3.39062,1.90103 h -3.2396 v 1.47919 h 4.95835 c 2.77603,0 4.8177,-1.28647 4.8177,-5.1927 v -7.6302 z m -1.81248,4.71876 c 0,-1.83856 1.49478,-3.23959 3.33853,-3.23959 h 1.6198 v 6.48439 h -1.6198 c -1.84375,0 -3.33853,-1.40104 -3.33853,-3.2448" />
	<path
   id="path3001"
   inkscape:connector-curvature="0"
   class="st1"
   d="m 174.9265,121.04517 c -3.02606,0 -5.48439,2.15105 -5.48439,4.81251 0,2.65624 2.45834,4.8125 5.48439,4.8125 3.02603,0 5.48437,-2.15626 5.48437,-4.8125 0,-2.66146 -2.45832,-4.81251 -5.48437,-4.81251 m 0,8.0052 c -1.3698,0 -2.47917,-1.42706 -2.47917,-3.19269 0,-1.76041 1.10937,-3.19792 2.47917,-3.19792 1.36978,0 2.47915,1.43751 2.47915,3.19792 0,1.76563 -1.10937,3.19269 -2.47915,3.19269" />
	<path
   id="path3003"
   inkscape:connector-curvature="0"
   class="st1"
   d="m 113.64524,121.2327 v 4.86457 c 0,2.11979 -0.4427,3.09377 -2.28647,3.09377 h -0.78645 v -7.95834 h -2.90625 v 7.95834 h -0.78124 c -1.84376,0 -2.29167,-0.97395 -2.29167,-3.09377 v -4.86457 h -2.90625 v 4.86457 c 0,3.85416 1.69792,4.57291 3.625,4.57291 h 7.61978 c 1.92189,0 3.625,-0.71875 3.625,-4.57291 v -4.86457 z" />
	
	
	
	
	
	
</g>
</svg>
