<?xml version="1.0" encoding="UTF-8"?>
<svg version="1.1" xmlns="http://www.w3.org/2000/svg" width="1200" height="667">
<path d="M0 0 C396 0 792 0 1200 0 C1200 220.11 1200 440.22 1200 667 C804 667 408 667 0 667 C0 446.89 0 226.78 0 0 Z " fill="#FEFEFE" transform="translate(0,0)"/>
<path d="M0 0 C310.53 0 621.06 0 941 0 C941 18.15 941 36.3 941 55 C630.47 55 319.94 55 0 55 C0 36.85 0 18.7 0 0 Z " fill="#D70B17" transform="translate(129,486)"/>
<path d="M0 0 C1.45713052 -0.01145822 2.91422113 -0.03181144 4.37109375 -0.06152344 C21.80501195 -0.41562208 37.79270442 3.40087134 50.8137207 15.70532227 C63.92646747 30.29215298 64.90191277 47.70012519 64.1418457 66.29516602 C63.64795784 73.19218341 62.49038025 79.89306721 60.8527832 86.60375977 C58.23111574 97.78890014 56.50125197 109.16130269 54.5793457 120.48266602 C53.97933437 124.00178201 53.37822942 127.52070576 52.77565002 131.03938293 C52.4033178 133.21511202 52.03255784 135.391111 51.66368103 137.56742859 C51.16693868 140.47862274 50.65545452 143.38690785 50.1418457 146.29516602 C49.98765167 147.22624176 49.83345764 148.1573175 49.67459106 149.11660767 C49.5182016 149.99835663 49.36181213 150.88010559 49.20068359 151.78857422 C49.06843887 152.56296341 48.93619415 153.3373526 48.79994202 154.13520813 C48.01237062 156.72012013 46.94846981 158.29378715 45.1418457 160.29516602 C42.78863633 161.31855922 40.65103058 162.09402379 38.2043457 162.79516602 C37.50849365 163.00310791 36.8126416 163.2110498 36.09570312 163.42529297 C27.24736451 165.97438535 18.20661205 167.71531636 9.1418457 169.29516602 C8.16892578 169.47466797 7.19600586 169.65416992 6.19360352 169.83911133 C-1.77078174 171.20940722 -9.61763473 171.66769959 -17.68676758 171.66577148 C-19.72521424 171.67014896 -21.7614928 171.70665185 -23.79956055 171.74438477 C-41.25302384 171.89333981 -57.82356392 166.94111845 -70.66674805 154.65454102 C-80.67117462 143.88328674 -83.27376744 132.51371801 -83.13549805 118.05688477 C-82.12214006 104.31232504 -76.32735474 92.79548784 -66.3972168 83.39672852 C-51.38763938 70.97341675 -32.55691567 67.89293438 -13.6081543 68.04516602 C-11.84894653 68.0509668 -11.84894653 68.0509668 -10.05419922 68.05688477 C-1.19134593 68.14481111 7.40480124 68.7966224 16.1418457 70.29516602 C16.27743266 67.25199216 16.3762181 64.2149104 16.4543457 61.17016602 C16.49624023 60.31422852 16.53813477 59.45829102 16.58129883 58.57641602 C16.66235077 54.36171498 16.60900431 51.24133771 13.99731445 47.80297852 C7.85261772 42.40640491 1.13943281 42.91079859 -6.6706543 42.92016602 C-7.77763672 42.91887695 -8.88461914 42.91758789 -10.02514648 42.91625977 C-18.2429264 43.02109662 -25.65942175 44.13360741 -33.5300293 46.42016602 C-36.52711982 47.20813348 -38.79146195 47.64816657 -41.8581543 47.29516602 C-45.63544974 43.51787057 -46.44719411 37.62531687 -47.9831543 32.60766602 C-48.35569336 31.43526367 -48.72823242 30.26286133 -49.11206055 29.05493164 C-50.87897495 23.32378619 -52.40399992 18.30827184 -51.8581543 12.29516602 C-35.86781123 3.00736196 -18.28681694 0.0996169 0 0 Z " fill="#024E98" transform="translate(841.858154296875,183.704833984375)"/>
<path d="M0 0 C2.03613737 -0.00973413 4.0712743 -0.0408799 6.10717773 -0.07226562 C21.69030715 -0.13322652 36.37123044 4.01813186 48.04272461 14.80273438 C56.3239417 23.72516597 61.84659549 35.80002365 61.87084961 48.02929688 C61.87342773 49.30160156 61.87600586 50.57390625 61.87866211 51.88476562 C61.87092773 53.19832031 61.86319336 54.511875 61.85522461 55.86523438 C61.86295898 57.15558594 61.87069336 58.4459375 61.87866211 59.77539062 C61.85735473 70.35450257 60.55362062 80.38722829 58.15991211 90.67211914 C57.44977991 93.95991872 56.86927546 97.2669005 56.29272461 100.58007812 C56.09997704 101.67910713 56.09997704 101.67910713 55.90333557 102.80033875 C54.977117 108.08802624 54.06065346 113.37740751 53.14305115 118.66659546 C52.45565512 122.62133657 51.76367236 126.57526764 51.07080078 130.52905273 C50.71475226 132.56773095 50.36095973 134.6068043 50.00927734 136.64624023 C49.49373704 139.63305555 48.97021155 142.61837576 48.44506836 145.60351562 C48.28981186 146.51386063 48.13455536 147.42420563 47.97459412 148.36213684 C47.82426224 149.2078978 47.67393036 150.05365875 47.51904297 150.92504883 C47.32609901 152.03394218 47.32609901 152.03394218 47.1292572 153.16523743 C46.54924021 155.46191421 45.87634311 157.23674903 44.60522461 159.24023438 C41.95408055 160.45311796 39.48742699 161.41514386 36.73022461 162.30273438 C35.95573975 162.56094971 35.18125488 162.81916504 34.38330078 163.08520508 C32.13007498 163.82489924 29.87041978 164.53816554 27.60522461 165.24023438 C26.6087793 165.5521875 25.61233398 165.86414063 24.58569336 166.18554688 C9.13500347 170.48368901 -6.87380558 171.53515636 -22.83227539 171.67773438 C-24.14615234 171.69989014 -25.4600293 171.7220459 -26.8137207 171.74487305 C-43.52183037 171.70816806 -60.19708427 166.98176277 -72.61743164 155.24414062 C-83.30756142 143.19131298 -85.24517899 131.11751269 -84.59790039 115.57958984 C-83.51049598 103.05614148 -77.74670136 91.63920071 -68.39477539 83.24023438 C-57.30399849 74.85979726 -45.87720708 71.59216968 -32.39477539 69.24023438 C-31.50016602 69.05203125 -30.60555664 68.86382812 -29.68383789 68.66992188 C-24.63462104 68.01028547 -19.60665052 68.04969358 -14.51977539 68.05273438 C-13.41384033 68.05208984 -12.30790527 68.05144531 -11.16845703 68.05078125 C-2.43651496 68.10668601 5.99308101 68.80273798 14.60522461 70.24023438 C14.71375384 67.36420983 14.79277611 64.49232606 14.85522461 61.61523438 C14.88874023 60.80699219 14.92225586 59.99875 14.95678711 59.16601562 C15.04522635 53.72700256 14.52855492 50.34862744 10.60522461 46.24023438 C4.87547591 42.7663448 -1.3766212 42.76869875 -7.89477539 42.86523438 C-8.85730225 42.87176025 -9.8198291 42.87828613 -10.81152344 42.88500977 C-18.09376855 43.01992217 -24.90527931 43.9582861 -32.00805664 45.50585938 C-36.13565487 46.40088644 -40.19248803 46.86503015 -44.39477539 47.24023438 C-47.22087475 40.77345408 -49.4857064 34.14006846 -51.64477539 27.42773438 C-52.05010498 26.19156372 -52.05010498 26.19156372 -52.46362305 24.93041992 C-55.04044993 16.79477259 -55.04044993 16.79477259 -54.39477539 13.24023438 C-42.22803826 0.37626303 -16.21182149 0.04671434 0 0 Z " fill="#014E98" transform="translate(367.394775390625,183.759765625)"/>
<path d="M0 0 C2.11320261 -0.00964712 4.225406 -0.04070664 6.33837891 -0.07226562 C22.7161657 -0.20050293 37.88233253 3.35536164 50.51416016 14.24023438 C51.12001953 14.75199219 51.72587891 15.26375 52.35009766 15.79101562 C61.66706358 24.31461546 66.97019828 37.14934172 67.93212891 49.61132812 C68.71919727 67.69738852 65.33269012 86.82987718 61.06494141 104.35742188 C58.59931752 114.69605979 57.19386171 125.25699558 55.56640625 135.75292969 C51.24581818 163.50857636 51.24581818 163.50857636 47.51416016 167.24023438 C45.69262695 167.49420166 45.69262695 167.49420166 43.46337891 167.49902344 C42.62911377 167.50532776 41.79484863 167.51163208 40.93530273 167.51812744 C40.03320068 167.51407898 39.13109863 167.51003052 38.20166016 167.50585938 C37.27699951 167.50777283 36.35233887 167.50968628 35.3996582 167.51165771 C33.44270557 167.51302004 31.48574391 167.50932033 29.52880859 167.50097656 C26.52632426 167.49027772 23.52443829 167.50087028 20.52197266 167.51367188 C18.62353383 167.51235029 16.72509538 167.50978791 14.82666016 167.50585938 C13.92455811 167.50990784 13.02245605 167.5139563 12.09301758 167.51812744 C10.84161987 167.50867096 10.84161987 167.50867096 9.56494141 167.49902344 C8.82928955 167.49743225 8.0936377 167.49584106 7.33569336 167.49420166 C5.51416016 167.24023438 5.51416016 167.24023438 3.51416016 165.24023438 C3.37346446 156.65941396 5.03359806 147.94252517 6.38916016 139.49023438 C6.56842041 138.35191162 6.74768066 137.21358887 6.93237305 136.04077148 C8.70132619 124.89217932 10.66017674 113.78749951 12.74072266 102.69335938 C14.01803172 95.87916458 15.27989319 89.06236451 16.51416016 82.24023438 C16.65273438 81.47453125 16.79130859 80.70882812 16.93408203 79.91992188 C19.95101987 64.02614927 19.95101987 64.02614927 16.65478516 48.88476562 C14.45319924 46.16492317 12.62167921 44.7939939 9.51416016 43.24023438 C8.85416016 42.91023438 8.19416016 42.58023438 7.51416016 42.24023438 C4.31229259 41.97374855 1.10087854 42.00861331 -2.11083984 41.99023438 C-3.42761719 41.95929688 -3.42761719 41.95929688 -4.77099609 41.92773438 C-10.67045437 41.89267073 -15.27878411 42.33438028 -20.48583984 45.24023438 C-22.00092206 48.50674942 -22.00092206 48.50674942 -22.29833984 52.42773438 C-22.50034131 53.8784121 -22.70349872 55.32892926 -22.90771484 56.77929688 C-22.99988281 57.52083008 -23.09205078 58.26236328 -23.18701172 59.02636719 C-23.65354796 62.4826994 -24.36276173 65.88451763 -25.04833984 69.30273438 C-26.01607247 74.34754533 -26.79494018 79.39137748 -27.42333984 84.49023438 C-28.13858439 90.14183883 -29.13358838 95.66529744 -30.29833984 101.24023438 C-31.99194933 109.36249985 -33.37635044 117.5186846 -34.66665649 125.71347046 C-36.20335173 135.47124279 -37.74790909 145.22588326 -39.61083984 154.92773438 C-39.75714844 155.72824219 -39.90345703 156.52875 -40.05419922 157.35351562 C-41.48922344 164.57328192 -41.48922344 164.57328192 -44.48583984 167.24023438 C-47.60519426 167.84575253 -50.6922777 167.77615293 -53.86083984 167.73632812 C-55.24215088 167.73851097 -55.24215088 167.73851097 -56.65136719 167.74073792 C-58.59817672 167.73907805 -60.54499924 167.72750694 -62.49169922 167.70678711 C-65.47468703 167.67784259 -68.45589719 167.68617398 -71.43896484 167.69921875 C-73.3295985 167.69298112 -75.22022653 167.68458998 -77.11083984 167.67382812 C-78.00464355 167.67676376 -78.89844727 167.6796994 -79.81933594 167.682724 C-80.65029785 167.67003983 -81.48125977 167.65735565 -82.33740234 167.64428711 C-83.06781738 167.63888412 -83.79823242 167.63348114 -84.55078125 167.62791443 C-87.05900832 167.12540272 -87.97944165 166.28278884 -89.48583984 164.24023438 C-89.31536134 161.78723814 -88.97477853 159.63401998 -88.48583984 157.24023438 C-88.2370503 155.65922792 -87.99542603 154.07708455 -87.75927734 152.49414062 C-85.60026378 138.7387378 -83.25954098 125.0180119 -80.86083984 111.30273438 C-80.70895203 110.43238556 -80.55706421 109.56203674 -80.40057373 108.66531372 C-77.64112764 92.87175752 -77.64112764 92.87175752 -76.49365234 87.29882812 C-74.78694726 78.98607499 -73.43314812 70.60111846 -71.98583984 62.24023438 C-68.47771348 41.97431148 -68.47771348 41.97431148 -66.88427734 34.28564453 C-66.47333742 32.17605218 -66.14893682 30.06696713 -65.84521484 27.93945312 C-65.74337891 27.27236328 -65.64154297 26.60527344 -65.53662109 25.91796875 C-65.3335448 24.57423662 -65.14907143 23.22758003 -64.98193359 21.87890625 C-64.35682459 18.01904642 -63.50865015 16.26406653 -60.78271484 13.41601562 C-44.47223017 2.65186875 -18.98847152 0.05222591 0 0 Z " fill="#024E98" transform="translate(1006.48583984375,183.759765625)"/>
<path d="M0 0 C0.67695923 -0.00626404 1.35391846 -0.01252808 2.0513916 -0.01898193 C20.36955743 -0.12643455 36.82007903 4.45319242 50.2734375 17.2421875 C61.15755659 28.69665345 63.77339418 42.40810676 63.625 57.6875 C63.61702393 59.18531006 63.61702393 59.18531006 63.60888672 60.71337891 C63.47855641 70.94678285 62.36610127 80.88479802 59.96118164 90.84838867 C57.05362642 103.69079731 55.06658702 116.78023711 52.8125 129.75 C52.50596289 131.51108573 52.19932267 133.27215351 51.89257812 135.03320312 C51.74333893 135.89001678 51.59409973 136.74683044 51.44033813 137.62960815 C51.00832242 140.105693 50.57440472 142.58143823 50.14013672 145.05712891 C49.67960358 147.6831042 49.22817051 150.30983989 48.78564453 152.93896484 C48.6204834 153.90141113 48.45532227 154.86385742 48.28515625 155.85546875 C48.15375244 156.64074951 48.02234863 157.42603027 47.88696289 158.23510742 C47.02851733 161.92801987 46.07647323 164.73602677 43.375 167.4375 C40.32494553 167.64995194 37.36805373 167.74145229 34.31640625 167.73828125 C33.41631332 167.74256638 32.5162204 167.7468515 31.58885193 167.75126648 C29.68318524 167.7570153 27.77749661 167.75750599 25.87182617 167.75317383 C22.9525819 167.75001631 20.03435306 167.77345734 17.11523438 167.79882812 C15.26562628 167.80110127 13.41601546 167.80180454 11.56640625 167.80078125 C10.25380577 167.81459587 10.25380577 167.81459587 8.91468811 167.82868958 C8.10051926 167.82246078 7.2863504 167.81623199 6.44750977 167.80981445 C5.73184341 167.81044388 5.01617706 167.8110733 4.27882385 167.8117218 C1.79092709 167.32269273 0.90052771 166.43136874 -0.625 164.4375 C-1.41948712 157.61425771 0.43491764 150.74842526 1.6875 144.0625 C2.15247826 141.52476423 2.61732269 138.98700393 3.08203125 136.44921875 C3.30713379 135.23153809 3.53223633 134.01385742 3.76416016 132.75927734 C4.49191174 128.80172819 5.18705186 124.83964911 5.875 120.875 C6.74866743 115.88760704 7.65890828 110.90917152 8.59765625 105.93359375 C11.71155979 89.46356763 11.71155979 89.46356763 14.015625 72.8671875 C14.375 70.4375 14.375 70.4375 15.375 69.4375 C16.39257692 57.63424863 16.39257692 57.63424863 12.15234375 46.91796875 C7.11717881 42.72384235 2.07592291 42.04236368 -4.3125 42.125 C-5.00150391 42.13337891 -5.69050781 42.14175781 -6.40039062 42.15039062 C-12.58157507 42.29334124 -18.57734738 43.1546646 -24.625 44.4375 C-24.67398438 45.12714844 -24.72296875 45.81679687 -24.7734375 46.52734375 C-24.84820312 47.46707031 -24.92296875 48.40679687 -25 49.375 C-25.10441406 50.74978516 -25.10441406 50.74978516 -25.2109375 52.15234375 C-25.52654353 54.65635008 -25.94305596 56.94619562 -26.515625 59.390625 C-27.8746656 65.28452411 -28.75590275 71.2481692 -29.68414307 77.22235107 C-31.44728693 88.54088294 -33.39919811 99.79331007 -35.72265625 111.01171875 C-37.04971903 117.43077059 -38.15058915 123.88845231 -39.26171875 130.34765625 C-39.63478284 132.49377765 -40.01894574 134.63765516 -40.40625 136.78125 C-40.53563965 137.50070801 -40.6650293 138.22016602 -40.79833984 138.96142578 C-41.05524372 140.38970821 -41.31335733 141.81777364 -41.57275391 143.24560547 C-42.17944781 146.64961149 -42.71946787 150.041406 -43.1171875 153.4765625 C-43.26414062 154.72179687 -43.41109375 155.96703125 -43.5625 157.25 C-43.67464844 158.34957031 -43.78679687 159.44914063 -43.90234375 160.58203125 C-44.81729621 164.19732988 -45.59777937 165.24007589 -48.625 167.4375 C-51.79460637 168.01651529 -54.91895106 167.9502289 -58.1328125 167.8984375 C-59.51555862 167.89706284 -59.51555862 167.89706284 -60.92623901 167.8956604 C-62.87128867 167.88962646 -64.81632912 167.87388666 -66.76123047 167.84912109 C-69.74611427 167.81254761 -72.729759 167.80810222 -75.71484375 167.80859375 C-77.60417744 167.79876504 -79.49350271 167.78710912 -81.3828125 167.7734375 C-82.27864044 167.77121185 -83.17446838 167.76898621 -84.09744263 167.76669312 C-84.92525238 167.75393341 -85.75306213 167.74117371 -86.60595703 167.72802734 C-87.33557648 167.72040375 -88.06519592 167.71278015 -88.81692505 167.70492554 C-90.625 167.4375 -90.625 167.4375 -92.625 165.4375 C-93.47372405 159.24734787 -92.21379166 152.95146575 -91.05078125 146.8828125 C-90.88665741 145.99152145 -90.72253357 145.10023041 -90.55343628 144.18193054 C-90.02229019 141.30733597 -89.48000627 138.4349701 -88.9375 135.5625 C-88.56802264 133.57394987 -88.19929324 131.58526064 -87.83129883 129.59643555 C-86.93155465 124.74243295 -86.02340538 119.89005198 -85.11242676 115.03814697 C-84.20874401 110.21658194 -83.31814073 105.39260994 -82.42626953 100.56884766 C-82.02187573 98.38216136 -81.61662329 96.19563366 -81.21044922 94.00927734 C-79.27100679 83.56753203 -77.431218 73.11007068 -75.625 62.64453125 C-75.44912354 61.6277832 -75.27324707 60.61103516 -75.09204102 59.56347656 C-74.7500811 57.58518562 -74.40933626 55.60668408 -74.07006836 53.62792969 C-73.30562135 49.20214295 -72.50626331 44.79082558 -71.60546875 40.390625 C-70.91714329 37.02359126 -70.34008241 33.66110497 -69.8359375 30.26171875 C-69.55729167 28.54947917 -69.27864583 26.83723958 -69 25.125 C-68.88527344 24.25810547 -68.77054687 23.39121094 -68.65234375 22.49804688 C-68.04836545 19.01047305 -67.56903314 16.37967424 -65.01318359 13.82885742 C-60.26693986 10.67785602 -54.9447268 8.92361057 -49.5 7.375 C-48.63020508 7.1260498 -47.76041016 6.87709961 -46.86425781 6.62060547 C-44.12510435 5.86114408 -41.37926507 5.1400785 -38.625 4.4375 C-37.78163086 4.2214209 -36.93826172 4.0053418 -36.06933594 3.78271484 C-24.10568633 0.85800905 -12.27128541 0.05340262 0 0 Z " fill="#024E98" transform="translate(533.625,183.5625)"/>
<path d="M0 0 C1.20333984 -0.01224609 2.40667969 -0.02449219 3.64648438 -0.03710938 C15.49316856 -0.05630984 25.8048238 1.4942263 36.75 6.0625 C37.60787109 6.40152344 38.46574219 6.74054688 39.34960938 7.08984375 C43.90638583 8.94643896 47.63594545 10.82047057 51.3125 14.1875 C50.71383445 18.55861787 49.63280556 22.35583261 48.02734375 26.4609375 C47.57939453 27.61464844 47.13144531 28.76835937 46.66992188 29.95703125 C45.96706055 31.74173828 45.96706055 31.74173828 45.25 33.5625 C44.77755859 34.77550781 44.30511719 35.98851562 43.81835938 37.23828125 C42.65486751 40.22340179 41.48609708 43.20634108 40.3125 46.1875 C35.44583571 47.03787345 32.93876793 47.20866044 28.45703125 45.08984375 C19.11599559 41.15946262 9.29555631 40.86169148 -0.6875 40.75 C-1.77401855 40.72784424 -2.86053711 40.70568848 -3.97998047 40.68286133 C-10.16203896 40.69965779 -14.02950958 40.96226207 -18.6875 45.1875 C-20.30370393 48.41990787 -20.25878046 51.69260776 -19.6875 55.1875 C-15.02077938 61.96177187 -7.37134962 62.83113306 0.20361328 64.46166992 C17.23293411 68.19341563 35.12363503 75.16953757 45.3125 90.1875 C51.98592349 102.52638197 52.91293618 114.22039903 49.41015625 127.82421875 C44.69274382 142.27863905 36.58137519 153.6326089 23.3125 161.1875 C22.68988281 161.55359375 22.06726563 161.9196875 21.42578125 162.296875 C1.06539523 173.39477933 -29.03028377 174.95719451 -51.14501953 168.95141602 C-53.00298 168.39740684 -54.84581555 167.79342216 -56.6875 167.1875 C-57.81671875 166.836875 -58.9459375 166.48625 -60.109375 166.125 C-68.80953069 163.12781718 -76.21622192 158.46078845 -83.6875 153.1875 C-84.6465625 152.55972656 -85.605625 151.93195313 -86.59375 151.28515625 C-88.6875 149.1875 -88.6875 149.1875 -89.4140625 146.5234375 C-88.29368069 141.37931889 -85.26378533 137.90911463 -82.0625 133.8125 C-81.44503906 133.00039063 -80.82757812 132.18828125 -80.19140625 131.3515625 C-78.96226723 129.73686198 -77.72243964 128.13023784 -76.47167969 126.53222656 C-75.29926778 124.99147068 -74.17243486 123.414744 -73.09863281 121.80371094 C-69.42064186 116.35510203 -69.42064186 116.35510203 -65.62890625 115.48828125 C-62.32389113 116.27393557 -60.37030549 117.38497176 -57.625 119.375 C-43.32418524 129.00655966 -27.5368182 130.75654393 -10.6875 129.1875 C-6.02877894 127.92154319 -2.10811857 126.47627437 0.5078125 122.26171875 C1.84058923 118.8262603 2.28009015 115.72591363 1.3125 112.1875 C-2.94360144 106.87086181 -10.62269431 106.12259679 -16.90405273 104.77416992 C-34.34632502 100.95672301 -51.23999444 93.7673313 -62.0625 78.9375 C-68.50868935 68.38919016 -70.29599184 56.73439748 -68.02734375 44.6796875 C-64.20776463 29.63286067 -56.3145602 17.74799525 -43.125 9.4375 C-29.50399027 1.92848182 -15.36794002 0.00810118 0 0 Z " fill="#024E98" transform="translate(691.6875,183.8125)"/>
<path d="M0 0 C-0.45331131 7.64266968 -2.56466232 13.87454538 -5.4375 20.9375 C-5.84548828 21.97712891 -6.25347656 23.01675781 -6.67382812 24.08789062 C-9.71623038 31.71623038 -9.71623038 31.71623038 -12 34 C-15.9194404 33.76003426 -19.20259451 32.97273716 -22.875 31.625 C-35.52996872 27.24111152 -52.40079634 23.97377521 -65.1875 29.02734375 C-68.08442769 30.58194503 -69.48070412 32.09352093 -71 35 C-71.83333333 38.5 -71.83333333 38.5 -71 42 C-65.674007 48.54336283 -57.00048132 49.69642625 -49.16796875 51.73828125 C-32.01646543 56.23333117 -15.22151347 62.53404664 -5.078125 77.9140625 C0.98671064 88.62860546 1.54700538 100.66385099 -0.68359375 112.68359375 C-5.55874711 129.53422756 -14.73768257 141.02402951 -29.86328125 149.62890625 C-51.67479427 160.68709392 -82.82209945 162.20468754 -106.02783203 154.68896484 C-117.5607211 150.66002043 -132.44378254 145.0321625 -140 135 C-140.06368875 129.81290526 -137.61943554 126.64501934 -134.4375 122.8125 C-133.52859076 121.67816945 -132.62106071 120.54273256 -131.71484375 119.40625 C-131.25964355 118.84035156 -130.80444336 118.27445313 -130.33544922 117.69140625 C-127.63171215 114.26700215 -125.129614 110.69370156 -122.59375 107.14453125 C-121 105 -121 105 -119 103 C-113.1107484 103 -109.44369786 105.34750454 -104.546875 108.44140625 C-94.8304973 114.38747174 -85.32948349 116.35105915 -74.0625 116.3125 C-73.12470703 116.32861328 -72.18691406 116.34472656 -71.22070312 116.36132812 C-65.10160477 116.36558045 -59.55463898 115.72713369 -54 113 C-50.99390957 109.91875731 -49.2251251 107.44723278 -48.5625 103.1875 C-49.07352536 99.46431523 -50.27060059 98.34837164 -53.19921875 96.078125 C-57.62596743 93.42783729 -62.31295875 92.40744886 -67.296875 91.30175781 C-84.19215648 87.54923943 -103.12505311 81.48693856 -113 66 C-118.94448067 54.07991572 -121.41355264 40.50338587 -117.8828125 27.375 C-111.97270404 11.47523917 -103.06007862 0.70065034 -87.625 -6.75 C-81.91666306 -9.21496368 -76.06993082 -10.71296596 -70 -12 C-68.85748779 -12.25910156 -68.85748779 -12.25910156 -67.69189453 -12.5234375 C-45.11341104 -16.52064408 -19.23873894 -12.82582596 0 0 Z " fill="#014E98" transform="translate(266,197)"/>
<path d="M0 0 C5.7834093 3.19084651 9.10820625 6.79836462 11.0390625 13.125 C12.04414822 20.04892382 11.74401323 25.7063915 7.53515625 31.44140625 C3.53071918 35.94770488 -0.78272875 39.72562192 -6.9140625 40.49609375 C-14.31861809 40.64523764 -19.36368039 40.19171142 -24.9609375 35.125 C-29.72305598 30.46056601 -32.22360731 25.63218923 -32.4609375 18.9375 C-32.32217151 12.51090022 -30.11278116 7.97610153 -25.9609375 3.125 C-17.76847355 -3.58634053 -9.4619337 -4.68219399 0 0 Z " fill="#FAFCFD" transform="translate(364.9609375,282.875)"/>
<path d="M0 0 C4.55223805 2.84111311 9.09565249 6.57360387 10.88671875 11.79296875 C12.0645654 18.74606349 12.27963928 25.95387692 8.6640625 32.18359375 C5.60982652 35.97185882 1.58178513 38.77160743 -2.75 40.9375 C-10.73411378 41.77514275 -17.45773057 41.93918959 -23.90625 36.75390625 C-29.06792427 31.66878223 -31.03985999 27.80730028 -31.3125 20.4375 C-31.01837922 13.74238226 -29.72738807 9.09127362 -25.1015625 4.19140625 C-17.81562403 -2.44229755 -9.10971297 -4.67796072 0 0 Z " fill="#FBFCFD" transform="translate(840.75,282.0625)"/>
<path d="M0 0 C0.66 0 1.32 0 2 0 C2.2475 0.804375 2.495 1.60875 2.75 2.4375 C3.1625 3.283125 3.575 4.12875 4 5 C6.02463255 5.65213292 6.02463255 5.65213292 8 6 C8.33 6.99 8.66 7.98 9 9 C10.62948064 10.22445284 10.62948064 10.22445284 12.5625 11.1875 C13.696875 11.785625 14.83125 12.38375 16 13 C16 13.66 16 14.32 16 15 C12.22959506 13.66534338 9.42875097 11.99723337 6.3125 9.5 C5.54550781 8.8915625 4.77851563 8.283125 3.98828125 7.65625 C2 6 2 6 0 4 C0 2.68 0 1.36 0 0 Z " fill="#124F98" transform="translate(126,328)"/>
<path d="M0 0 C0 0.66 0 1.32 0 2 C-1.7071731 3.63181401 -3.49188084 5.18330492 -5.3125 6.6875 C-6.29863281 7.51636719 -7.28476563 8.34523437 -8.30078125 9.19921875 C-9.19152344 9.79347656 -10.08226562 10.38773438 -11 11 C-11.99 10.67 -12.98 10.34 -14 10 C-12.56458334 8.70601853 -11.12658648 7.41489889 -9.6875 6.125 C-8.88699219 5.40570313 -8.08648437 4.68640625 -7.26171875 3.9453125 C-2.6746988 0 -2.6746988 0 0 0 Z " fill="#18549C" transform="translate(173,194)"/>
<path d="M0 0 C4.81938524 -0.23509196 8.46298506 0.54815522 13 2 C13 2.33 13 2.66 13 3 C8.07872966 3.16682272 4.49656104 3.24828052 0 1 C0 0.67 0 0.34 0 0 Z " fill="#3970AC" transform="translate(801,352)"/>
<path d="M0 0 C0.33 0 0.66 0 1 0 C0.67 3.3 0.34 6.6 0 10 C-0.66 9.67 -1.32 9.34 -2 9 C-1.125 1.125 -1.125 1.125 0 0 Z " fill="#2A61A3" transform="translate(943,204)"/>
</svg>
